<svg width="25" height="24" viewBox="0 0 25 24" fill="none" xmlns="http://www.w3.org/2000/svg">
<path fill-rule="evenodd" clip-rule="evenodd" d="M3.2692 7.82274C2.75 8.77128 2.75 9.91549 2.75 12.2039V13.725C2.75 17.6258 2.75 19.5763 3.92157 20.7881C5.09315 22 6.97876 22 10.75 22H14.75C18.5212 22 20.4069 22 21.5784 20.7881C22.75 19.5763 22.75 17.6258 22.75 13.725V12.2039C22.75 9.91549 22.75 8.77128 22.2308 7.82274C21.7116 6.87421 20.7631 6.28551 18.866 5.10812L16.866 3.86687C14.8606 2.62229 13.8579 2 12.75 2C11.6421 2 10.6394 2.62229 8.63403 3.86687L6.63403 5.10813C4.73695 6.28551 3.7884 6.87421 3.2692 7.82274ZM9.75 17.25C9.33579 17.25 9 17.5858 9 18C9 18.4142 9.33579 18.75 9.75 18.75H15.75C16.1642 18.75 16.5 18.4142 16.5 18C16.5 17.5858 16.1642 17.25 15.75 17.25H9.75Z" fill="url(#paint0_linear_249_2159)"/>
<defs>
<linearGradient id="paint0_linear_249_2159" x1="12.75" y1="2" x2="12.75" y2="22" gradientUnits="userSpaceOnUse">
<stop stop-color="#F9F8FF"/>
<stop offset="1" stop-color="#C1C1C1"/>
</linearGradient>
</defs>
</svg>
