<svg width="25" height="24" viewBox="0 0 25 24" fill="none" xmlns="http://www.w3.org/2000/svg">
<path d="M22.25 7.81V16.19C22.25 19 20.96 20.93 18.69 21.66C18.03 21.89 17.27 22 16.44 22H8.06C7.23 22 6.47 21.89 5.81 21.66C3.54 20.93 2.25 19 2.25 16.19V7.81C2.25 4.17 4.42 2 8.06 2H16.44C20.08 2 22.25 4.17 22.25 7.81Z" fill="url(#paint0_linear_56_2391)"/>
<path d="M18.69 21.66C18.03 21.89 17.27 22 16.44 22H8.06C7.23 22 6.47 21.89 5.81 21.66C6.16 19.02 8.92 16.97 12.25 16.97C15.58 16.97 18.34 19.02 18.69 21.66Z" fill="#26273C"/>
<path d="M15.83 11.58C15.83 13.56 14.23 15.17 12.25 15.17C10.27 15.17 8.66998 13.56 8.66998 11.58C8.66998 9.60002 10.27 8 12.25 8C14.23 8 15.83 9.60002 15.83 11.58Z" fill="#26273C"/>
<defs>
<linearGradient id="paint0_linear_56_2391" x1="12.25" y1="2" x2="12.25" y2="22" gradientUnits="userSpaceOnUse">
<stop stop-color="#F9F8FF"/>
<stop offset="1" stop-color="#C1C1C1"/>
</linearGradient>
</defs>
</svg>
