<svg width="25" height="24" viewBox="0 0 25 24" fill="none" xmlns="http://www.w3.org/2000/svg">
<path d="M21.25 18V8.00021C21.25 5.79107 19.4591 4.00021 17.25 4.00021H7.25C5.04086 4.00021 3.25 5.79107 3.25 8.00021V18C3.25 20.2092 5.04086 22 7.25 22H17.25C19.4591 22 21.25 20.2092 21.25 18Z" fill="url(#paint0_linear_3186_47588)"/>
<path fill-rule="evenodd" clip-rule="evenodd" d="M7.5 9.99981C7.5 9.5856 7.83579 9.24982 8.25 9.24982H16.25C16.6642 9.24982 17 9.5856 17 9.99981C17 10.414 16.6642 10.7498 16.25 10.7498H8.25C7.83579 10.7498 7.5 10.414 7.5 9.99981Z" fill="#26273C"/>
<path fill-rule="evenodd" clip-rule="evenodd" d="M7.5 14C7.5 13.5858 7.83579 13.25 8.25 13.25H16.25C16.6642 13.25 17 13.5858 17 14C17 14.4142 16.6642 14.75 16.25 14.75H8.25C7.83579 14.75 7.5 14.4142 7.5 14Z" fill="#26273C"/>
<path fill-rule="evenodd" clip-rule="evenodd" d="M7.5 18.0001C7.5 17.5859 7.83579 17.2502 8.25 17.2502H12.25C12.6642 17.2502 13 17.5859 13 18.0001C13 18.4144 12.6642 18.7501 12.25 18.7501H8.25C7.83579 18.7501 7.5 18.4144 7.5 18.0001Z" fill="#26273C"/>
<path d="M14.25 2H10.25C9.14543 2 8.25 2.89542 8.25 3.99998C8.25 5.10454 9.14543 5.99996 10.25 5.99996H14.25C15.3546 5.99996 16.25 5.10454 16.25 3.99998C16.25 2.89542 15.3546 2 14.25 2Z" fill="#26273C"/>
<defs>
<linearGradient id="paint0_linear_3186_47588" x1="12.25" y1="4.00021" x2="12.25" y2="22" gradientUnits="userSpaceOnUse">
<stop stop-color="#F9F8FF"/>
<stop offset="1" stop-color="#C1C1C1"/>
</linearGradient>
</defs>
</svg>
