<svg width="25" height="24" viewBox="0 0 25 24" fill="none" xmlns="http://www.w3.org/2000/svg">
<path d="M11.2113 2.8995L6.4529 5.11564C5.07653 5.75666 4.16824 7.19219 4.25582 8.76784C4.59823 14.9278 6.31966 17.6397 10.7927 20.8131C11.9777 21.6537 13.5397 21.6558 14.7238 20.8138C19.2106 17.6231 20.8704 14.8729 21.2429 8.78918C21.34 7.20311 20.4303 5.75234 19.0443 5.10685L14.3048 2.8995C13.3201 2.44089 12.196 2.44089 11.2113 2.8995Z" fill="url(#paint0_linear_3186_47589)"/>
<path d="M11.8056 16.722C11.8056 16.2004 12.2284 15.7775 12.75 15.7775C13.2716 15.7775 13.6945 16.2004 13.6945 16.722C13.6945 17.2436 13.2716 17.6664 12.75 17.6664C12.2284 17.6664 11.8056 17.2436 11.8056 16.722Z" fill="#26273C"/>
<path fill-rule="evenodd" clip-rule="evenodd" d="M12.75 14.5977C12.3588 14.5977 12.0417 14.2805 12.0417 13.8893L12.0417 7.27821C12.0417 6.88701 12.3588 6.56988 12.75 6.56988C13.1412 6.56988 13.4584 6.88701 13.4584 7.27821L13.4584 13.8893C13.4584 14.2805 13.1412 14.5977 12.75 14.5977Z" fill="#26273C"/>
<defs>
<linearGradient id="paint0_linear_3186_47589" x1="12.75" y1="2.55554" x2="12.75" y2="21.4444" gradientUnits="userSpaceOnUse">
<stop stop-color="#F9F8FF"/>
<stop offset="1" stop-color="#C1C1C1"/>
</linearGradient>
</defs>
</svg>
